<?xml version="1.0" standalone="no"?><svg xmlns="http://www.w3.org/2000/svg" viewBox="0 0 1440 320"><path fill="#5000ca" fill-opacity="0.5" d="M0,32L17.1,26.7C34.3,21,69,11,103,5.3C137.1,0,171,0,206,10.7C240,21,274,43,309,74.7C342.9,107,377,149,411,192C445.7,235,480,277,514,272C548.6,267,583,213,617,181.3C651.4,149,686,139,720,133.3C754.3,128,789,128,823,128C857.1,128,891,128,926,154.7C960,181,994,235,1029,261.3C1062.9,288,1097,288,1131,272C1165.7,256,1200,224,1234,218.7C1268.6,213,1303,235,1337,229.3C1371.4,224,1406,192,1423,176L1440,160L1440,320L1422.9,320C1405.7,320,1371,320,1337,320C1302.9,320,1269,320,1234,320C1200,320,1166,320,1131,320C1097.1,320,1063,320,1029,320C994.3,320,960,320,926,320C891.4,320,857,320,823,320C788.6,320,754,320,720,320C685.7,320,651,320,617,320C582.9,320,549,320,514,320C480,320,446,320,411,320C377.1,320,343,320,309,320C274.3,320,240,320,206,320C171.4,320,137,320,103,320C68.6,320,34,320,17,320L0,320Z"></path></svg>